{"asset":{"version":"2.0","generator":"FlyCoder voxel builder"},"scene":0,"scenes":[{"nodes":[0]}],"nodes":[{"name":"Pip","children":[1,2,3]},{"name":"body","children":[4,5,6,7,8,9,10,11,12,13,14,15,16,17,18,19,20,21,22,23,24,25,26,33,34,35,36,37,38,39,40,41,42,43,44,45,46,47]},{"name":"wingL","children":[27,28,29,30,31,32]},{"name":"wingR","children":[48,49,50,51,52,53]},{"name":"thorax","mesh":0,"translation":[0,0,0],"scale":[0.95,0.78,0.92]},{"name":"thorax-cap","mesh":2,"translation":[0,0.45,-0.03],"scale":[0.72,0.15,0.7]},{"name":"abdomen","mesh":1,"translation":[0,-0.12,0.75],"scale":[0.76,0.62,0.78]},{"name":"abdomen-tip","mesh":0,"translation":[0,-0.15,1.22],"scale":[0.5,0.45,0.3]},{"name":"abdomen-band0.55","mesh":2,"translation":[0,0.21,0.55],"scale":[0.7,0.09,0.11]},{"name":"abdomen-band0.85","mesh":2,"translation":[0,0.21,0.85],"scale":[0.7,0.09,0.11]},{"name":"abdomen-band1.1","mesh":2,"translation":[0,0.21,1.1],"scale":[0.7,0.09,0.11]},{"name":"head","mesh":1,"translation":[0,0.05,-0.77],"scale":[1.04,0.8,0.66]},{"name":"cheek-1","mesh":0,"translation":[-0.53,0.03,-0.81],"scale":[0.18,0.55,0.5]},{"name":"eye-1","mesh":3,"translation":[-0.32,0.15,-1.14],"scale":[0.44,0.55,0.12]},{"name":"eye-shadow-1","mesh":4,"translation":[-0.32,-0.07,-1.22],"scale":[0.42,0.14,0.07]},{"name":"eye-glint-1","mesh":5,"translation":[-0.39,0.3,-1.22],"scale":[0.14,0.16,0.04]},{"name":"antenna-base-1","mesh":8,"translation":[-0.29,0.57,-0.97],"scale":[0.1,0.3,0.1]},{"name":"antenna-tip-1","mesh":2,"translation":[-0.4,0.75,-0.98],"scale":[0.22,0.1,0.12]},{"name":"leg-hip-10","mesh":8,"translation":[-0.63,-0.35,-0.43],"scale":[0.36,0.12,0.13]},{"name":"leg-knee-10","mesh":8,"translation":[-0.81,-0.55,-0.31],"scale":[0.12,0.4,0.13]},{"name":"foot-10","mesh":1,"translation":[-0.9,-0.78,-0.4],"scale":[0.3,0.1,0.33]},{"name":"leg-hip-11","mesh":8,"translation":[-0.63,-0.35,0.03],"scale":[0.36,0.12,0.13]},{"name":"leg-knee-11","mesh":8,"translation":[-0.81,-0.55,0.15],"scale":[0.12,0.4,0.13]},{"name":"foot-11","mesh":1,"translation":[-0.9,-0.78,0.06],"scale":[0.3,0.1,0.33]},{"name":"leg-hip-12","mesh":8,"translation":[-0.63,-0.35,0.52],"scale":[0.36,0.12,0.13]},{"name":"leg-knee-12","mesh":8,"translation":[-0.81,-0.55,0.64],"scale":[0.12,0.4,0.13]},{"name":"foot-12","mesh":1,"translation":[-0.9,-0.78,0.55],"scale":[0.3,0.1,0.33]},{"name":"wingL0","mesh":6,"translation":[-0.8,0.36,0.18],"scale":[0.22,0.06,0.72]},{"name":"wingL1","mesh":6,"translation":[-1.0,0.36,0.31],"scale":[0.22,0.06,0.72]},{"name":"wingL2","mesh":6,"translation":[-1.2000000000000002,0.36,0.44],"scale":[0.22,0.06,0.72]},{"name":"wingL3","mesh":6,"translation":[-1.4000000000000001,0.36,0.5700000000000001],"scale":[0.22,0.06,0.55]},{"name":"wingL4","mesh":6,"translation":[-1.6,0.36,0.7],"scale":[0.22,0.06,0.55]},{"name":"wingLedge","mesh":7,"translation":[-1.22,0.39,0.65],"scale":[0.74,0.025,0.06]},{"name":"cheek1","mesh":0,"translation":[0.53,0.03,-0.81],"scale":[0.18,0.55,0.5]},{"name":"eye1","mesh":3,"translation":[0.32,0.15,-1.14],"scale":[0.44,0.55,0.12]},{"name":"eye-shadow1","mesh":4,"translation":[0.32,-0.07,-1.22],"scale":[0.42,0.14,0.07]},{"name":"eye-glint1","mesh":5,"translation":[0.25,0.3,-1.22],"scale":[0.14,0.16,0.04]},{"name":"antenna-base1","mesh":8,"translation":[0.29,0.57,-0.97],"scale":[0.1,0.3,0.1]},{"name":"antenna-tip1","mesh":2,"translation":[0.4,0.75,-0.98],"scale":[0.22,0.1,0.12]},{"name":"leg-hip10","mesh":8,"translation":[0.63,-0.35,-0.43],"scale":[0.36,0.12,0.13]},{"name":"leg-knee10","mesh":8,"translation":[0.81,-0.55,-0.31],"scale":[0.12,0.4,0.13]},{"name":"foot10","mesh":1,"translation":[0.9,-0.78,-0.4],"scale":[0.3,0.1,0.33]},{"name":"leg-hip11","mesh":8,"translation":[0.63,-0.35,0.03],"scale":[0.36,0.12,0.13]},{"name":"leg-knee11","mesh":8,"translation":[0.81,-0.55,0.15],"scale":[0.12,0.4,0.13]},{"name":"foot11","mesh":1,"translation":[0.9,-0.78,0.06],"scale":[0.3,0.1,0.33]},{"name":"leg-hip12","mesh":8,"translation":[0.63,-0.35,0.52],"scale":[0.36,0.12,0.13]},{"name":"leg-knee12","mesh":8,"translation":[0.81,-0.55,0.64],"scale":[0.12,0.4,0.13]},{"name":"foot12","mesh":1,"translation":[0.9,-0.78,0.55],"scale":[0.3,0.1,0.33]},{"name":"wingR0","mesh":6,"translation":[0.8,0.36,0.18],"scale":[0.22,0.06,0.72]},{"name":"wingR1","mesh":6,"translation":[1.0,0.36,0.31],"scale":[0.22,0.06,0.72]},{"name":"wingR2","mesh":6,"translation":[1.2000000000000002,0.36,0.44],"scale":[0.22,0.06,0.72]},{"name":"wingR3","mesh":6,"translation":[1.4000000000000001,0.36,0.5700000000000001],"scale":[0.22,0.06,0.55]},{"name":"wingR4","mesh":6,"translation":[1.6,0.36,0.7],"scale":[0.22,0.06,0.55]},{"name":"wingRedge","mesh":7,"translation":[1.22,0.39,0.65],"scale":[0.74,0.025,0.06]}],"meshes":[{"primitives":[{"attributes":{"POSITION":0,"NORMAL":1},"indices":2,"material":0}]},{"primitives":[{"attributes":{"POSITION":0,"NORMAL":1},"indices":2,"material":1}]},{"primitives":[{"attributes":{"POSITION":0,"NORMAL":1},"indices":2,"material":2}]},{"primitives":[{"attributes":{"POSITION":0,"NORMAL":1},"indices":2,"material":3}]},{"primitives":[{"attributes":{"POSITION":0,"NORMAL":1},"indices":2,"material":4}]},{"primitives":[{"attributes":{"POSITION":0,"NORMAL":1},"indices":2,"material":5}]},{"primitives":[{"attributes":{"POSITION":0,"NORMAL":1},"indices":2,"material":6}]},{"primitives":[{"attributes":{"POSITION":0,"NORMAL":1},"indices":2,"material":7}]},{"primitives":[{"attributes":{"POSITION":0,"NORMAL":1},"indices":2,"material":8}]}],"materials":[{"name":"#586778","pbrMetallicRoughness":{"baseColorFactor":[0.34509803921568627,0.403921568627451,0.47058823529411764,1],"metallicFactor":0.05,"roughnessFactor":0.7}},{"name":"#303d4d","pbrMetallicRoughness":{"baseColorFactor":[0.18823529411764706,0.23921568627450981,0.30196078431372547,1],"metallicFactor":0.05,"roughnessFactor":0.7}},{"name":"#8c9cae","pbrMetallicRoughness":{"baseColorFactor":[0.5490196078431373,0.611764705882353,0.6823529411764706,1],"metallicFactor":0.05,"roughnessFactor":0.7}},{"name":"#edc76a","pbrMetallicRoughness":{"baseColorFactor":[0.9294117647058824,0.7803921568627451,0.41568627450980394,1],"metallicFactor":0.05,"roughnessFactor":0.7}},{"name":"#c19345","pbrMetallicRoughness":{"baseColorFactor":[0.7568627450980392,0.5764705882352941,0.27058823529411763,1],"metallicFactor":0.05,"roughnessFactor":0.7}},{"name":"#fff3c3","pbrMetallicRoughness":{"baseColorFactor":[1.0,0.9529411764705882,0.7647058823529411,1],"metallicFactor":0.05,"roughnessFactor":0.7}},{"name":"#b6deeb","pbrMetallicRoughness":{"baseColorFactor":[0.7137254901960784,0.8705882352941177,0.9215686274509803,1],"metallicFactor":0.05,"roughnessFactor":0.7}},{"name":"#84b8cc","pbrMetallicRoughness":{"baseColorFactor":[0.5176470588235295,0.7215686274509804,0.8,1],"metallicFactor":0.05,"roughnessFactor":0.7}},{"name":"#435365","pbrMetallicRoughness":{"baseColorFactor":[0.2627450980392157,0.3254901960784314,0.396078431372549,1],"metallicFactor":0.05,"roughnessFactor":0.7}}],"buffers":[{"byteLength":756,"uri":"data:application/octet-stream;base64,"}],"bufferViews":[{"buffer":0,"byteOffset":0,"byteLength":288},{"buffer":0,"byteOffset":288,"byteLength":288},{"buffer":0,"byteOffset":576,"byteLength":72},{"buffer":0,"byteOffset":648,"byteLength":12},{"buffer":0,"byteOffset":660,"byteLength":48},{"buffer":0,"byteOffset":708,"byteLength":48}],"accessors":[{"bufferView":0,"componentType":5126,"count":24,"type":"VEC3","min":[-0.5,-0.5,-0.5],"max":[0.5,0.5,0.5]},{"bufferView":1,"componentType":5126,"count":24,"type":"VEC3"},{"bufferView":2,"componentType":5123,"count":36,"type":"SCALAR"},{"bufferView":3,"componentType":5126,"count":3,"type":"SCALAR","min":[0],"max":[0.24]},{"bufferView":4,"componentType":5126,"count":3,"type":"VEC4"},{"bufferView":5,"componentType":5126,"count":3,"type":"VEC4"}],"animations":[{"name":"Wing flutter","samplers":[{"input":3,"output":4,"interpolation":"LINEAR"},{"input":3,"output":5,"interpolation":"LINEAR"}],"channels":[{"sampler":0,"target":{"node":2,"path":"rotation"}},{"sampler":1,"target":{"node":3,"path":"rotation"}}]}]}
